<mxfile host="app.diagrams.net" modified="2023-04-15T08:04:16.018Z" agent="Mozilla/5.0 (Windows NT 10.0; Win64; x64) AppleWebKit/537.36 (KHTML, like Gecko) Chrome/111.0.0.0 Safari/537.36" etag="lD1QnrwA5AP3E8Q8k403" version="21.1.5" type="github">
  <diagram name="Page-1" id="b520641d-4fe3-3701-9064-5fc419738815">
    <mxGraphModel dx="1058" dy="565" grid="1" gridSize="10" guides="1" tooltips="1" connect="1" arrows="1" fold="1" page="1" pageScale="1" pageWidth="1100" pageHeight="850" background="none" math="0" shadow="0">
      <root>
        <mxCell id="0" />
        <mxCell id="1" parent="0" />
        <mxCell id="GkwFFELm4VW82PM_lDo3-64" style="edgeStyle=orthogonalEdgeStyle;rounded=1;orthogonalLoop=1;jettySize=auto;html=1;exitX=1;exitY=0.5;exitDx=0;exitDy=0;" edge="1" parent="1" source="GkwFFELm4VW82PM_lDo3-3" target="GkwFFELm4VW82PM_lDo3-6">
          <mxGeometry relative="1" as="geometry">
            <Array as="points">
              <mxPoint x="130" y="338" />
              <mxPoint x="270" y="337" />
              <mxPoint x="270" y="415" />
              <mxPoint x="425" y="415" />
            </Array>
          </mxGeometry>
        </mxCell>
        <mxCell id="GkwFFELm4VW82PM_lDo3-65" style="edgeStyle=orthogonalEdgeStyle;rounded=1;orthogonalLoop=1;jettySize=auto;html=1;exitX=1;exitY=0.5;exitDx=0;exitDy=0;entryX=0.5;entryY=0;entryDx=0;entryDy=0;" edge="1" parent="1" source="GkwFFELm4VW82PM_lDo3-3" target="GkwFFELm4VW82PM_lDo3-7">
          <mxGeometry relative="1" as="geometry">
            <Array as="points">
              <mxPoint x="130" y="338" />
              <mxPoint x="270" y="337" />
              <mxPoint x="270" y="415" />
              <mxPoint x="555" y="415" />
            </Array>
          </mxGeometry>
        </mxCell>
        <mxCell id="GkwFFELm4VW82PM_lDo3-66" style="edgeStyle=orthogonalEdgeStyle;rounded=1;orthogonalLoop=1;jettySize=auto;html=1;exitX=1;exitY=0.5;exitDx=0;exitDy=0;entryX=0.5;entryY=0;entryDx=0;entryDy=0;" edge="1" parent="1" source="GkwFFELm4VW82PM_lDo3-3" target="GkwFFELm4VW82PM_lDo3-8">
          <mxGeometry relative="1" as="geometry">
            <Array as="points">
              <mxPoint x="130" y="338" />
              <mxPoint x="270" y="337" />
              <mxPoint x="270" y="415" />
              <mxPoint x="685" y="415" />
            </Array>
          </mxGeometry>
        </mxCell>
        <mxCell id="GkwFFELm4VW82PM_lDo3-67" style="edgeStyle=orthogonalEdgeStyle;rounded=1;orthogonalLoop=1;jettySize=auto;html=1;exitX=1;exitY=0.5;exitDx=0;exitDy=0;entryX=0.25;entryY=0;entryDx=0;entryDy=0;" edge="1" parent="1" source="GkwFFELm4VW82PM_lDo3-3" target="GkwFFELm4VW82PM_lDo3-9">
          <mxGeometry relative="1" as="geometry">
            <Array as="points">
              <mxPoint x="130" y="338" />
              <mxPoint x="270" y="337" />
              <mxPoint x="270" y="415" />
              <mxPoint x="788" y="415" />
            </Array>
          </mxGeometry>
        </mxCell>
        <mxCell id="GkwFFELm4VW82PM_lDo3-70" style="edgeStyle=orthogonalEdgeStyle;rounded=1;orthogonalLoop=1;jettySize=auto;html=1;exitX=1;exitY=0.5;exitDx=0;exitDy=0;entryX=0;entryY=0.5;entryDx=0;entryDy=0;" edge="1" parent="1" source="GkwFFELm4VW82PM_lDo3-3" target="GkwFFELm4VW82PM_lDo3-5">
          <mxGeometry relative="1" as="geometry" />
        </mxCell>
        <mxCell id="GkwFFELm4VW82PM_lDo3-71" style="edgeStyle=orthogonalEdgeStyle;rounded=1;orthogonalLoop=1;jettySize=auto;html=1;exitX=1;exitY=0.5;exitDx=0;exitDy=0;entryX=0;entryY=0.5;entryDx=0;entryDy=0;" edge="1" parent="1" source="GkwFFELm4VW82PM_lDo3-3" target="GkwFFELm4VW82PM_lDo3-10">
          <mxGeometry relative="1" as="geometry" />
        </mxCell>
        <mxCell id="GkwFFELm4VW82PM_lDo3-73" style="edgeStyle=orthogonalEdgeStyle;rounded=1;orthogonalLoop=1;jettySize=auto;html=1;exitX=1;exitY=0.5;exitDx=0;exitDy=0;entryX=0;entryY=0.5;entryDx=0;entryDy=0;" edge="1" parent="1" source="GkwFFELm4VW82PM_lDo3-3" target="GkwFFELm4VW82PM_lDo3-4">
          <mxGeometry relative="1" as="geometry" />
        </mxCell>
        <mxCell id="GkwFFELm4VW82PM_lDo3-3" value="&lt;font style=&quot;font-size: 18px;&quot;&gt;患者&lt;/font&gt;" style="rounded=0;whiteSpace=wrap;html=1;" vertex="1" parent="1">
          <mxGeometry x="70" y="313" width="100" height="50" as="geometry" />
        </mxCell>
        <mxCell id="GkwFFELm4VW82PM_lDo3-36" style="edgeStyle=orthogonalEdgeStyle;rounded=1;orthogonalLoop=1;jettySize=auto;html=1;exitX=1;exitY=0.5;exitDx=0;exitDy=0;" edge="1" parent="1" source="GkwFFELm4VW82PM_lDo3-4" target="GkwFFELm4VW82PM_lDo3-29">
          <mxGeometry relative="1" as="geometry">
            <Array as="points">
              <mxPoint x="480" y="355" />
              <mxPoint x="718" y="355" />
            </Array>
          </mxGeometry>
        </mxCell>
        <mxCell id="GkwFFELm4VW82PM_lDo3-4" value="&lt;font style=&quot;font-size: 18px;&quot;&gt;登录&lt;/font&gt;" style="rounded=1;whiteSpace=wrap;html=1;" vertex="1" parent="1">
          <mxGeometry x="370" y="329" width="110" height="50" as="geometry" />
        </mxCell>
        <mxCell id="GkwFFELm4VW82PM_lDo3-40" style="edgeStyle=orthogonalEdgeStyle;rounded=0;orthogonalLoop=1;jettySize=auto;html=1;exitX=1;exitY=0.5;exitDx=0;exitDy=0;" edge="1" parent="1" source="GkwFFELm4VW82PM_lDo3-5" target="GkwFFELm4VW82PM_lDo3-29">
          <mxGeometry relative="1" as="geometry" />
        </mxCell>
        <mxCell id="GkwFFELm4VW82PM_lDo3-5" value="&lt;font style=&quot;font-size: 18px;&quot;&gt;注册&lt;/font&gt;" style="rounded=1;whiteSpace=wrap;html=1;" vertex="1" parent="1">
          <mxGeometry x="370" y="245" width="110" height="50" as="geometry" />
        </mxCell>
        <mxCell id="GkwFFELm4VW82PM_lDo3-60" style="edgeStyle=orthogonalEdgeStyle;rounded=1;orthogonalLoop=1;jettySize=auto;html=1;exitX=0.5;exitY=1;exitDx=0;exitDy=0;entryX=-0.002;entryY=0.563;entryDx=0;entryDy=0;entryPerimeter=0;" edge="1" parent="1" source="GkwFFELm4VW82PM_lDo3-6" target="GkwFFELm4VW82PM_lDo3-27">
          <mxGeometry relative="1" as="geometry" />
        </mxCell>
        <mxCell id="GkwFFELm4VW82PM_lDo3-6" value="&lt;font style=&quot;font-size: 18px;&quot;&gt;上门服务&lt;/font&gt;" style="rounded=1;whiteSpace=wrap;html=1;" vertex="1" parent="1">
          <mxGeometry x="370" y="435" width="110" height="50" as="geometry" />
        </mxCell>
        <mxCell id="GkwFFELm4VW82PM_lDo3-58" style="edgeStyle=orthogonalEdgeStyle;rounded=0;orthogonalLoop=1;jettySize=auto;html=1;exitX=0.5;exitY=1;exitDx=0;exitDy=0;" edge="1" parent="1" source="GkwFFELm4VW82PM_lDo3-7" target="GkwFFELm4VW82PM_lDo3-27">
          <mxGeometry relative="1" as="geometry" />
        </mxCell>
        <mxCell id="GkwFFELm4VW82PM_lDo3-7" value="&lt;font style=&quot;font-size: 18px;&quot;&gt;预约详情&lt;/font&gt;" style="rounded=1;whiteSpace=wrap;html=1;" vertex="1" parent="1">
          <mxGeometry x="500" y="435" width="110" height="50" as="geometry" />
        </mxCell>
        <mxCell id="GkwFFELm4VW82PM_lDo3-62" style="edgeStyle=orthogonalEdgeStyle;rounded=1;orthogonalLoop=1;jettySize=auto;html=1;exitX=0.5;exitY=1;exitDx=0;exitDy=0;entryX=1.004;entryY=0.531;entryDx=0;entryDy=0;entryPerimeter=0;" edge="1" parent="1" source="GkwFFELm4VW82PM_lDo3-8" target="GkwFFELm4VW82PM_lDo3-27">
          <mxGeometry relative="1" as="geometry" />
        </mxCell>
        <mxCell id="GkwFFELm4VW82PM_lDo3-8" value="&lt;font style=&quot;font-size: 18px;&quot;&gt;健康数据&lt;/font&gt;" style="rounded=1;whiteSpace=wrap;html=1;" vertex="1" parent="1">
          <mxGeometry x="630" y="435" width="110" height="50" as="geometry" />
        </mxCell>
        <mxCell id="GkwFFELm4VW82PM_lDo3-52" style="edgeStyle=orthogonalEdgeStyle;rounded=1;orthogonalLoop=1;jettySize=auto;html=1;exitX=0.5;exitY=0;exitDx=0;exitDy=0;entryX=0.644;entryY=1.027;entryDx=0;entryDy=0;entryPerimeter=0;" edge="1" parent="1" source="GkwFFELm4VW82PM_lDo3-9" target="GkwFFELm4VW82PM_lDo3-29">
          <mxGeometry relative="1" as="geometry">
            <Array as="points">
              <mxPoint x="815" y="355" />
              <mxPoint x="737" y="355" />
            </Array>
          </mxGeometry>
        </mxCell>
        <mxCell id="GkwFFELm4VW82PM_lDo3-9" value="&lt;font style=&quot;font-size: 18px;&quot;&gt;个人中心&lt;/font&gt;" style="rounded=1;whiteSpace=wrap;html=1;" vertex="1" parent="1">
          <mxGeometry x="760" y="435" width="110" height="50" as="geometry" />
        </mxCell>
        <mxCell id="GkwFFELm4VW82PM_lDo3-10" value="&lt;font style=&quot;font-size: 18px;&quot;&gt;首页&lt;/font&gt;" style="rounded=1;whiteSpace=wrap;html=1;" vertex="1" parent="1">
          <mxGeometry x="370" y="170" width="110" height="50" as="geometry" />
        </mxCell>
        <mxCell id="GkwFFELm4VW82PM_lDo3-27" value="&lt;font style=&quot;font-size: 16px;&quot;&gt;Appointment表&lt;/font&gt;" style="html=1;rounded=0;shadow=0;comic=0;labelBackgroundColor=none;strokeWidth=2;fontFamily=Verdana;fontSize=12;align=center;shape=mxgraph.ios7ui.horLines;" vertex="1" parent="1">
          <mxGeometry x="487.5" y="565" width="135" height="50" as="geometry" />
        </mxCell>
        <mxCell id="GkwFFELm4VW82PM_lDo3-48" style="edgeStyle=orthogonalEdgeStyle;rounded=0;orthogonalLoop=1;jettySize=auto;html=1;entryX=0;entryY=0.5;entryDx=0;entryDy=0;" edge="1" parent="1" source="GkwFFELm4VW82PM_lDo3-29" target="GkwFFELm4VW82PM_lDo3-47">
          <mxGeometry relative="1" as="geometry" />
        </mxCell>
        <mxCell id="GkwFFELm4VW82PM_lDo3-29" value="&lt;font style=&quot;font-size: 16px;&quot;&gt;patient表&lt;/font&gt;" style="html=1;rounded=0;shadow=0;comic=0;labelBackgroundColor=none;strokeWidth=2;fontFamily=Verdana;fontSize=12;align=center;shape=mxgraph.ios7ui.horLines;" vertex="1" parent="1">
          <mxGeometry x="650" y="245" width="135" height="50" as="geometry" />
        </mxCell>
        <mxCell id="GkwFFELm4VW82PM_lDo3-34" value="&lt;font style=&quot;font-size: 16px;&quot;&gt;患者登录信息&lt;/font&gt;" style="text;html=1;strokeColor=none;fillColor=none;align=center;verticalAlign=middle;whiteSpace=wrap;rounded=0;" vertex="1" parent="1">
          <mxGeometry x="510" y="325" width="110" height="30" as="geometry" />
        </mxCell>
        <mxCell id="GkwFFELm4VW82PM_lDo3-41" value="&lt;font style=&quot;font-size: 16px;&quot;&gt;患者注册信息&lt;/font&gt;" style="text;html=1;strokeColor=none;fillColor=none;align=center;verticalAlign=middle;whiteSpace=wrap;rounded=0;" vertex="1" parent="1">
          <mxGeometry x="510" y="245" width="110" height="30" as="geometry" />
        </mxCell>
        <mxCell id="GkwFFELm4VW82PM_lDo3-49" style="edgeStyle=orthogonalEdgeStyle;rounded=1;orthogonalLoop=1;jettySize=auto;html=1;exitX=1;exitY=0.5;exitDx=0;exitDy=0;entryX=1;entryY=0.5;entryDx=0;entryDy=0;" edge="1" parent="1" source="GkwFFELm4VW82PM_lDo3-47" target="GkwFFELm4VW82PM_lDo3-9">
          <mxGeometry relative="1" as="geometry">
            <Array as="points">
              <mxPoint x="1000" y="270" />
              <mxPoint x="1000" y="460" />
            </Array>
          </mxGeometry>
        </mxCell>
        <mxCell id="GkwFFELm4VW82PM_lDo3-47" value="&lt;font style=&quot;font-size: 18px;&quot;&gt;生成Token&lt;/font&gt;" style="rounded=1;whiteSpace=wrap;html=1;" vertex="1" parent="1">
          <mxGeometry x="870" y="245" width="110" height="50" as="geometry" />
        </mxCell>
        <mxCell id="GkwFFELm4VW82PM_lDo3-53" value="&lt;span style=&quot;font-size: 16px;&quot;&gt;token&lt;/span&gt;" style="text;html=1;strokeColor=none;fillColor=none;align=center;verticalAlign=middle;whiteSpace=wrap;rounded=0;" vertex="1" parent="1">
          <mxGeometry x="760" y="385" width="110" height="30" as="geometry" />
        </mxCell>
        <mxCell id="GkwFFELm4VW82PM_lDo3-54" value="&lt;font style=&quot;font-size: 16px;&quot;&gt;患者信息&lt;/font&gt;" style="text;html=1;strokeColor=none;fillColor=none;align=center;verticalAlign=middle;whiteSpace=wrap;rounded=0;" vertex="1" parent="1">
          <mxGeometry x="770" y="245" width="110" height="30" as="geometry" />
        </mxCell>
        <mxCell id="GkwFFELm4VW82PM_lDo3-56" value="&lt;span style=&quot;font-size: 16px;&quot;&gt;token&lt;/span&gt;" style="text;html=1;strokeColor=none;fillColor=none;align=center;verticalAlign=middle;whiteSpace=wrap;rounded=0;" vertex="1" parent="1">
          <mxGeometry x="920" y="349" width="110" height="30" as="geometry" />
        </mxCell>
        <mxCell id="GkwFFELm4VW82PM_lDo3-59" value="&lt;span style=&quot;font-size: 16px;&quot;&gt;患者id&lt;/span&gt;" style="text;html=1;strokeColor=none;fillColor=none;align=center;verticalAlign=middle;whiteSpace=wrap;rounded=0;" vertex="1" parent="1">
          <mxGeometry x="530" y="505" width="110" height="30" as="geometry" />
        </mxCell>
        <mxCell id="GkwFFELm4VW82PM_lDo3-61" value="&lt;span style=&quot;font-size: 16px;&quot;&gt;预约信息&lt;/span&gt;" style="text;html=1;strokeColor=none;fillColor=none;align=center;verticalAlign=middle;whiteSpace=wrap;rounded=0;" vertex="1" parent="1">
          <mxGeometry x="406" y="505" width="110" height="30" as="geometry" />
        </mxCell>
        <mxCell id="GkwFFELm4VW82PM_lDo3-63" value="&lt;span style=&quot;font-size: 16px;&quot;&gt;患者id&lt;/span&gt;" style="text;html=1;strokeColor=none;fillColor=none;align=center;verticalAlign=middle;whiteSpace=wrap;rounded=0;" vertex="1" parent="1">
          <mxGeometry x="662.5" y="505" width="110" height="30" as="geometry" />
        </mxCell>
        <mxCell id="GkwFFELm4VW82PM_lDo3-68" value="&lt;span style=&quot;font-size: 16px;&quot;&gt;URL&lt;/span&gt;" style="text;html=1;strokeColor=none;fillColor=none;align=center;verticalAlign=middle;whiteSpace=wrap;rounded=0;" vertex="1" parent="1">
          <mxGeometry x="170" y="313" width="110" height="30" as="geometry" />
        </mxCell>
      </root>
    </mxGraphModel>
  </diagram>
</mxfile>
